<svg xmlns="http://www.w3.org/2000/svg" xmlns:xlink="http://www.w3.org/1999/xlink" viewBox="0 0 231.01 172.81"><defs><style>.cls-1,.cls-2{fill:none;}.cls-1{clip-rule:evenodd;}.cls-10,.cls-11,.cls-12,.cls-13,.cls-14,.cls-2,.cls-5,.cls-7,.cls-8,.cls-9{fill-rule:evenodd;}.cls-3{clip-path:url(#clip-path);}.cls-4{fill:url(#linear-gradient);}.cls-5{fill:#fff;}.cls-6{fill:#071352;}.cls-7{fill:#6c3817;}.cls-8{fill:#432818;}.cls-9{fill:#b9b9dd;}.cls-10{fill:#554c45;}.cls-11{fill:#28323c;}.cls-12{fill:url(#linear-gradient-2);}.cls-13{fill:#a3461a;}.cls-14{fill:url(#linear-gradient-3);}</style><clipPath id="clip-path" transform="translate(43.7)"><path class="cls-1" d="M78.67,0A78.68,78.68,0,1,1,0,78.68,78.67,78.67,0,0,1,78.67,0"/></clipPath><linearGradient id="linear-gradient" x1="122.38" y1="24.05" x2="122.38" y2="175.69" gradientUnits="userSpaceOnUse"><stop offset="0" stop-color="#2e494a"/><stop offset="0.38" stop-color="#3a5152"/><stop offset="1" stop-color="#576566"/></linearGradient><linearGradient id="linear-gradient-2" x1="96.95" y1="87.69" x2="126.71" y2="87.69" xlink:href="#linear-gradient"/><linearGradient id="linear-gradient-3" x1="94.2" y1="86.26" x2="105.07" y2="86.26" xlink:href="#linear-gradient"/></defs><g id="Layer_2" data-name="Layer 2"><g id="Layer_1-2" data-name="Layer 1"><g class="cls-3"><rect class="cls-4" x="43.7" width="157.35" height="157.35"/></g><g class="cls-3"><path class="cls-5" d="M125.33,62.11a4,4,0,0,1,4,4c0,.14,0,.28,0,.42h-7.89a3,3,0,0,1,0-.42,4,4,0,0,1,4-4M150,47.51a11.16,11.16,0,0,1,10.81,8.38,11.36,11.36,0,0,1,4.69,0,11.17,11.17,0,1,1,13.37,14.24H158.12l7-3.66H133.54a5.3,5.3,0,0,1-.19-1.39,5.18,5.18,0,0,1,5.18-5.18h.39a10.58,10.58,0,0,1-.07-1.27A11.16,11.16,0,0,1,150,47.51Z" transform="translate(43.7)"/><path class="cls-5" d="M5.32,25.93a14.67,14.67,0,0,0-14.21,11,14.62,14.62,0,0,0-3-.3,14.64,14.64,0,0,0-3.19.35A14.67,14.67,0,0,0-29,26.8,14.67,14.67,0,0,0-43.7,41.47,14.67,14.67,0,0,0-32.62,55.7H-5.34l-9.21-4.81H51.83a8.78,8.78,0,0,0-6.78-3,9.29,9.29,0,0,0-2.55.35,5.25,5.25,0,0,0-2.4-2.52A8.3,8.3,0,0,0,32,40.09a9.2,9.2,0,0,0-4.44,1.12,6.45,6.45,0,0,0-2.34-.44,6.06,6.06,0,0,0-4.07,1.52c-.23,0-.46,0-.7,0l-.52,0A13.25,13.25,0,0,0,20,40.6,14.67,14.67,0,0,0,5.32,25.93" transform="translate(43.7)"/><path class="cls-5" d="M129.45,101.59a14.68,14.68,0,0,1,14.21,11,14.6,14.6,0,0,1,6.17,0,14.67,14.67,0,1,1,17.56,18.71H140.1l9.21-4.81H82.94a8.78,8.78,0,0,1,6.78-3,9.62,9.62,0,0,1,2.54.35,5.2,5.2,0,0,1,2.41-2.51,8.3,8.3,0,0,1,8.14-5.59,9.2,9.2,0,0,1,4.44,1.12,6.37,6.37,0,0,1,2.34-.44,6,6,0,0,1,4.06,1.52c.24,0,.47,0,.71,0a4.35,4.35,0,0,1,.51,0,15.48,15.48,0,0,1-.09-1.68,14.67,14.67,0,0,1,14.67-14.67" transform="translate(43.7)"/></g><path class="cls-6" d="M18.78,159.44a1,1,0,0,1,0-2.06H131.41a1,1,0,0,1,0,2.06Z" transform="translate(43.7)"/><path class="cls-6" d="M138.09,159.44a1,1,0,0,1,0-2.06h14.4a1,1,0,0,1,0,2.06Z" transform="translate(43.7)"/><path class="cls-6" d="M34,165.87a1,1,0,0,1,0-2.06H82.81a1,1,0,0,1,0,2.06Z" transform="translate(43.7)"/><path class="cls-6" d="M20.07,171.78a1,1,0,1,1,0-2.05h20a1,1,0,1,1,0,2.05Z" transform="translate(43.7)"/><path class="cls-6" d="M69.18,172.81a1,1,0,1,1,0-2.05H89.24a1,1,0,1,1,0,2.05Z" transform="translate(43.7)"/><path class="cls-6" d="M108.26,170.76a1,1,0,0,1,0-2.06H143a1,1,0,0,1,0,2.06Z" transform="translate(43.7)"/><path class="cls-6" d="M127,153.46a1,1,0,1,1,0-2.05h18.81a1,1,0,0,1,0,2.05Z" transform="translate(43.7)"/><path class="cls-6" d="M153.78,153.53a1,1,0,1,1,0-2.06h5.65a1,1,0,0,1,0,2.06Z" transform="translate(43.7)"/><path class="cls-7" d="M129.75,140.48c-1.15,3.9-2.35,7.79-3.56,11.68l-.06.18-.18.07c-10,3.47-20.39,4.88-30.92,5.38-6.15.29-12.32.28-18.48.15-7-.16-14-.48-21-.82A137.85,137.85,0,0,1,41,155.89c-1.92-.3-5.33-.9-6.85-2.2l0,0,0,0a78.49,78.49,0,0,1-8.86-16.34q-.9-2.21-1.71-4.45l-.1-.29.26-.17a42.57,42.57,0,0,0,7-5.61,50.74,50.74,0,0,0,6.58-8.11,3.9,3.9,0,0,1,5.33-1.15,235.83,235.83,0,0,0,27,14.75,135.11,135.11,0,0,0,23.67,8.47,76.17,76.17,0,0,0,19.59,2.39A46.53,46.53,0,0,0,129.23,140l.75-.29Z" transform="translate(43.7)"/><path class="cls-8" d="M41,155.89c-1.92-.3-5.33-.9-6.85-2.2l0,0,0,0a78.49,78.49,0,0,1-8.86-16.34q-.9-2.21-1.71-4.45l-.1-.29.26-.17a42.57,42.57,0,0,0,7-5.61,50.74,50.74,0,0,0,6.58-8.11,3.9,3.9,0,0,1,1.78-1.46h0c1.56.31,1.62.54,2.41,2.36,2.17,7.89,4.43,16.89,8.21,27.44A7.12,7.12,0,0,0,56,151.79q50.42,4,71.66-4.32c-.48,1.56-1,3.13-1.45,4.69l-.06.18-.18.07c-10,3.47-20.39,4.88-30.92,5.38-6.15.29-12.32.28-18.48.15-7-.16-14-.48-21-.82A135,135,0,0,1,41,155.89" transform="translate(43.7)"/><path class="cls-5" d="M22.85,130.84c-.22-.64-.43-1.29-.64-1.94l-.08-.24.19-.17a73.91,73.91,0,0,0,7.5-7.72,75.93,75.93,0,0,0,6.2-8.6,3.77,3.77,0,0,1,1-1.13,4,4,0,0,1,1.41-.62,4,4,0,0,1,1.55,0,4,4,0,0,1,1.43.58,258.56,258.56,0,0,0,28.08,15.89,141.84,141.84,0,0,0,24.51,9.33c11.69,3.12,24.86,4.44,36.35-.19l.74-.29-.22.76c-.14.49-.28,1-.43,1.48l-.05.18-.16.07c-11.47,5.13-24.72,4.23-36.64,1.3a133.37,133.37,0,0,1-23.49-8.41,234.8,234.8,0,0,1-26.84-14.65A5.17,5.17,0,0,0,36.25,118a50.25,50.25,0,0,1-6.42,7.91,41.38,41.38,0,0,1-6.4,5.17l-.42.28Z" transform="translate(43.7)"/><path class="cls-9" d="M22.85,130.84c-.22-.64-.43-1.29-.64-1.94l-.08-.24.19-.17a73.91,73.91,0,0,0,7.5-7.72,75.93,75.93,0,0,0,6.2-8.6,3.77,3.77,0,0,1,1-1.13,4,4,0,0,1,1.41-.62c.27,1.78.64,3.25.85,4.14,1.64-.28,4.13.8,6.44,3.39h0l-2.46-1.53A5.17,5.17,0,0,0,36.25,118a50.25,50.25,0,0,1-6.42,7.91,41.38,41.38,0,0,1-6.4,5.17l-.42.28Z" transform="translate(43.7)"/><path class="cls-10" d="M36.49,85.85l.17,0,.16.17a148.1,148.1,0,0,0,46.33,29,142.8,142.8,0,0,0,26.65,7.71h0l.07,0a116.39,116.39,0,0,0,23.49,2h.48l-.09.47c-.54,2.89-1.35,5.83-2.14,8.67l0,.17-.16.08a42,42,0,0,1-16.65,3.55,73.63,73.63,0,0,1-20.39-2.77A141.63,141.63,0,0,1,70,125.67a256.66,256.66,0,0,1-27.88-15.79,5.13,5.13,0,0,0-1.9-.76,5.06,5.06,0,0,0-2,.06,5.14,5.14,0,0,0-1.87.82,5,5,0,0,0-1.39,1.5,74.36,74.36,0,0,1-6.1,8.46,71.89,71.89,0,0,1-6.67,7l-.46.42-.18-.59c-1.09-3.57-2-7.18-2.88-10.82l0-.16.09-.14a108.31,108.31,0,0,0,7.86-14.18,121.9,121.9,0,0,0,5.6-14.82l0-.14.12-.07a5.62,5.62,0,0,1,1.8-.55,5.64,5.64,0,0,1,2.35,0" transform="translate(43.7)"/><path class="cls-5" d="M36.91,86.14a147.94,147.94,0,0,0,46.24,29,142.8,142.8,0,0,0,26.65,7.71h0l.07,0a116.39,116.39,0,0,0,23.49,2h.48l-.09.47c-.54,2.89-1.35,5.83-2.14,8.67l0,.17-.16.08-1.1.48q1.67-5.73,2.23-8.55-51.45.47-95.07-36.64c-.25-.86-.58-1.91-1-3.16l.4-.15" transform="translate(43.7)"/><path class="cls-11" d="M45.6,112.07q-1.74-1.08-3.45-2.19a5.13,5.13,0,0,0-1.9-.76,5.06,5.06,0,0,0-2,.06,5.14,5.14,0,0,0-1.87.82,5,5,0,0,0-1.39,1.5,74.36,74.36,0,0,1-6.1,8.46,71.89,71.89,0,0,1-6.67,7l-.46.42-.18-.59c-1.09-3.57-2-7.18-2.88-10.82l0-.16.09-.14a108.31,108.31,0,0,0,7.86-14.18,121.9,121.9,0,0,0,5.6-14.82l0-.14.12-.07a5.68,5.68,0,0,1,1.75-.55c1.46,9.4,2.71,16.14,3.9,21.5,2.46-.44,5.62,2.22,7.61,4.7" transform="translate(43.7)"/><path class="cls-7" d="M41.41,78.73l0-4.11L89.32,64l24.15,10.72.07,3.49-4.65-1.38h0a.19.19,0,0,0-.1,0h0L89.23,71a.57.57,0,0,0-.32,0Z" transform="translate(43.7)"/><path class="cls-8" d="M41.41,78.73l0-4.11,44-9.76,3.43.2C89,66.65,89,68.63,89,71l-.12,0Z" transform="translate(43.7)"/><polygon class="cls-12" points="96.97 96.7 96.95 83.13 126.42 78.68 126.71 93.35 96.97 96.7"/><path class="cls-5" d="M60.25,83.57,57.73,84l-3,3.74v2.58Zm19,8.72.81-.1,1.44-2,0-.93Zm-3.77.42,1.43-.16,4.51-6.39,0-1.55Zm-13,1.47L63.88,94l8.67-12.29-1.17.17ZM54.76,95l3.74-.42L68,82.4l-5.28.8-8,9.8Z" transform="translate(43.7)"/><path class="cls-11" d="M48.8,94.44l0-15.62,39.66-6.44,1.29,43.79-.53-.19c-1.87-.65-3.73-1.35-5.57-2.07A150.94,150.94,0,0,1,54.53,98.54L53.66,98l30.06-3.39a.64.64,0,0,0,.57-.69v0L84,77.9a.64.64,0,0,0-.65-.62h-.11L52.5,82a.65.65,0,0,0-.53.68l0,14.13-.62-.44c-.81-.58-1.62-1.18-2.42-1.78Z" transform="translate(43.7)"/><polygon class="cls-13" points="91.2 80.51 87.62 79.61 91.2 79.03 91.2 80.51"/><polygon class="cls-13" points="155.41 79.01 153.05 79.57 153.01 78.3 155.41 79.01"/><path class="cls-7" d="M134.42,75.79l-24.28,30.79-.12-4,27.54-33.8,1.61,1-4.7,6h0l0,.06" transform="translate(43.7)"/><polygon class="cls-8" points="156.95 102.64 153.84 106.58 153.72 102.54 181.27 68.73 181.43 69.96 156.94 100.5 156.95 102.64"/><path class="cls-10" d="M108.1,80.43l.64,21.89v.05l.56,19-.48-.09a136.82,136.82,0,0,1-17.57-4.63L91,116.6v-1L89.71,72.49,108,77.92l.08,2.44v.07" transform="translate(43.7)"/><path class="cls-14" d="M103.47,82a8.32,8.32,0,0,1,1.59,5,8.72,8.72,0,0,1-.06,1,6.41,6.41,0,0,1-1.71,3.65A4.36,4.36,0,0,1,100.1,93a3.6,3.6,0,0,1-.56,0,5.76,5.76,0,0,1-3.75-2.4,8.32,8.32,0,0,1-1.59-5,6.77,6.77,0,0,1,.07-1A6.36,6.36,0,0,1,96,80.88a4.42,4.42,0,0,1,3.19-1.36,3.6,3.6,0,0,1,.56,0,5.77,5.77,0,0,1,3.75,2.4" transform="translate(43.7)"/><path class="cls-5" d="M98.74,80.33l-.3,0L95,85.17c0,.13,0,.26,0,.39v0Zm2.44.57a4.47,4.47,0,0,0-.83-.39L95.4,88.13A7.7,7.7,0,0,0,96,89.37L100.5,82Zm1.66,1.53c-.13-.18-.28-.35-.43-.52l-5.23,9a4.52,4.52,0,0,0,2.47,1.24,2.13,2.13,0,0,0,.25,0l4-7.69A7.43,7.43,0,0,0,102.84,82.43Z" transform="translate(43.7)"/><path class="cls-6" d="M129.38,140.37c-9.84,3.9-21.92,4.22-36.13.73-14.68-3.6-31.66-11.28-50.81-23.26a3.5,3.5,0,0,0-2.62-.46,3.56,3.56,0,0,0-2.19,1.49A51.53,51.53,0,0,1,31,127.05a43,43,0,0,1-7.08,5.66q.82,2.28,1.7,4.44a78.19,78.19,0,0,0,8.81,16.25c1.07.9,3.29,1.58,6.66,2.1a142.9,142.9,0,0,0,14.46,1.23c15,.73,27.89,1.22,39.46.67,11.31-.53,21.35-2.07,30.81-5.36q2-6.53,3.56-11.67M23.22,130.71a40.29,40.29,0,0,0,6.34-5.12,48.84,48.84,0,0,0,6.36-7.85,5.56,5.56,0,0,1,7.6-1.64c19,11.86,35.74,19.45,50.22,23s26.69,3,36.38-1.28c.15-.51.29-1,.42-1.49-9.88,4-22.13,4.07-36.59.2-15.17-4-32.8-12.45-52.7-25.26a3.37,3.37,0,0,0-1.29-.52,3.45,3.45,0,0,0-1.39,0,3.54,3.54,0,0,0-1.28.56,3.42,3.42,0,0,0-.94,1A76.2,76.2,0,0,1,30.12,121a73.86,73.86,0,0,1-7.54,7.76C22.79,129.43,23,130.08,23.22,130.71Zm86.6-7.51-.09,0A143.41,143.41,0,0,1,83,115.45,148.78,148.78,0,0,1,36.5,86.3h0l0-.05-.08,0a5.18,5.18,0,0,0-2.18,0,5.06,5.06,0,0,0-1.65.5,124,124,0,0,1-5.62,14.86A107.91,107.91,0,0,1,19,115.84q1.32,5.7,2.87,10.79a71.38,71.38,0,0,0,6.65-6.92,74.15,74.15,0,0,0,6.06-8.42,5.48,5.48,0,0,1,1.49-1.61,5.83,5.83,0,0,1,4.21-1,5.45,5.45,0,0,1,2,.82c19.73,12.7,37.17,21,52.13,25,14.75,3.94,27.07,3.67,36.78-.76q1.59-5.73,2.13-8.63A117.11,117.11,0,0,1,109.82,123.2Zm-6.54-41.1a5.51,5.51,0,0,0-3.59-2.31,3.12,3.12,0,0,0-.54,0,4.19,4.19,0,0,0-3,1.29,6.17,6.17,0,0,0-1.64,3.53,7.47,7.47,0,0,0-.06,1A8.1,8.1,0,0,0,96,90.41a5.49,5.49,0,0,0,3.59,2.32,4.75,4.75,0,0,0,.54,0,4.19,4.19,0,0,0,3-1.29A6.17,6.17,0,0,0,104.77,88a7.74,7.74,0,0,0,.06-1A8.05,8.05,0,0,0,103.28,82.1ZM99.7,77.67A8,8,0,0,1,104.92,81a10.53,10.53,0,0,1,2,6.29c0,.41,0,.83-.09,1.24a8,8,0,0,1-2.15,4.59,6,6,0,0,1-4.36,1.82,5.56,5.56,0,0,1-.79-.06,8,8,0,0,1-5.22-3.29,10.52,10.52,0,0,1-2-6.28c0-.42,0-.84.09-1.25a8.12,8.12,0,0,1,2.15-4.59,6,6,0,0,1,4.36-1.82A5.46,5.46,0,0,1,99.7,77.67Zm-57.89.6,47-7.65a1.17,1.17,0,0,1,.49,0l19.52,5.79.16,0,4.12,1.22,0-2.7L89.28,64.41,41.83,74.94Zm11.85,18,29-3.26-.27-13.88-28.7,4.33ZM49.17,81v.66l0,12.58c.8.6,1.61,1.19,2.42,1.78l0-13.38a1,1,0,0,1,.85-1.06L83.17,76.9h.15a1,1,0,0,1,1.05,1l.31,15.94a1,1,0,0,1-.91,1.11l-29,3.28a150.49,150.49,0,0,0,29,15.32c1.84.73,3.7,1.42,5.55,2.08L88.06,72.83l-38.9,6.32Zm-2.05-1v-.53l-1.27.2Zm60.59.42v-.09l-.06-2.14L90.12,73l1.24,42.56,0,.74a133.62,133.62,0,0,0,17.52,4.62l-.37-12.54v0h0l-.18-6v-.06ZM110.2,79l-.49-.15v.26Zm23.9-3.41.07-.09,4.43-5.62-.95-.6-27.24,33.42.09,2.83Zm4.55,0,.09,0a1.81,1.81,0,0,0,.49-.37A2.87,2.87,0,0,0,140,73a3,3,0,0,0-.34-1.24l-3.12,4a3.7,3.7,0,0,0,1,.09A2.84,2.84,0,0,0,138.65,75.55Zm.23,26.87.38,0a.89.89,0,0,0,.58-.26,1,1,0,0,0,.27-.66,1,1,0,0,0-.26-.66,1,1,0,0,0-.66-.28.94.94,0,0,0-.67.27,1,1,0,0,0,0,1.32A1,1,0,0,0,138.88,102.42ZM30.67,85.88a1.51,1.51,0,0,1,.44-.61,6.3,6.3,0,0,1,2.74-1,7.08,7.08,0,0,1,3.16,0h0a2.2,2.2,0,0,1,.9.53q4.41,4.13,9.23,7.88l0-10.55-6.53-1.64a1,1,0,0,1-.83-.85.7.7,0,0,1,0-.25l0-5.23a1,1,0,0,1,.81-1L89.16,62.34h0a1,1,0,0,1,.63.06l24.69,11a1,1,0,0,1,.65.94l.08,4.68a1.31,1.31,0,0,1,0,.39,1.06,1.06,0,0,1-.81.72l-4.59,1.09.54,18.36,26.31-32.29a1,1,0,0,1,1.39-.19l2.64,1.66a1,1,0,0,1,.37,1.33,5.06,5.06,0,0,1,1.06,2.86,4.93,4.93,0,0,1-1.36,3.62,4.69,4.69,0,0,1-.53.47L140,98.66a3.09,3.09,0,0,1,1.3.78h0a3,3,0,0,1,0,4.22h0a3.09,3.09,0,0,1-1.3.75l0,3.37a1,1,0,0,1-1,1h-.17c-.74-.08-1.15.11-1.35.45a3.68,3.68,0,0,0-.33,2,2.2,2.2,0,0,0,.37,1.33,1,1,0,0,0,.85.26,1.18,1.18,0,0,0,.74-.31,1,1,0,0,0,.34-.59,1,1,0,1,1,2.05.18,3.08,3.08,0,0,1-1,1.94,3.25,3.25,0,0,1-2,.83,2.94,2.94,0,0,1-2.47-.95,4.18,4.18,0,0,1-.87-2.61,5.66,5.66,0,0,1,.63-3.13,2.9,2.9,0,0,1,2.26-1.41l0-2.51a3.06,3.06,0,0,1-.86-.61h0a3,3,0,0,1-.86-2.12,3,3,0,0,1,.9-2.1h0a3.11,3.11,0,0,1,.87-.59l.18-21-.39,0a5.9,5.9,0,0,1-2.52-.42L110.59,108.7l.37,12.62a113,113,0,0,0,23.61,1.76,1,1,0,0,1,1.06,1,.78.78,0,0,1,0,.22,89,89,0,0,1-2.4,10.15q-2,7.13-5.59,18.7a1,1,0,0,1-.63.66c-9.82,3.49-20.19,5.1-31.89,5.65s-24.59.06-39.65-.67a143.53,143.53,0,0,1-14.68-1.25c-3.84-.6-6.43-1.44-7.78-2.67a.91.91,0,0,1-.18-.21,79.49,79.49,0,0,1-9.09-16.72,141.83,141.83,0,0,1-6.79-22.05,1,1,0,0,1,.19-.86,106.46,106.46,0,0,0,7.94-14.26A119.82,119.82,0,0,0,30.64,86Z" transform="translate(43.7)"/></g></g></svg>